<?xml version="1.0" encoding="UTF-8"?>
<svg width="16px" height="12px" viewBox="0 0 16 12" version="1.1" xmlns="http://www.w3.org/2000/svg" xmlns:xlink="http://www.w3.org/1999/xlink">
    <title>C3B783FB-73E5-4E9A-B106-35A5D3AB971A</title>
    <g id="FRIGO" stroke="none" stroke-width="1" fill="none" fill-rule="evenodd">
        <g id="clipper-pref" transform="translate(-336.000000, -592.000000)" fill="#667070">
            <g id="2ï¸âƒ£-/ðŸ‘‡/Auto/btn:h24---ico.left:w16---pad.r.l:8" transform="translate(255.000000, 588.000000)">
                <g id="icon/action/favorite_24px" transform="translate(81.666667, 4.006667)">
                    <path d="M1.33333333,-8.8817842e-16 L13.3333333,-8.8817842e-16 C14.0666667,-8.8817842e-16 14.6666667,0.6 14.6666667,1.33333333 L14.6666667,3.99333333 L13.3333333,3.99333333 L13.3333333,1.32 L1.33333333,1.32 L1.33333333,10.6733333 L13.3333333,10.6733333 L13.3333333,7.99333333 L14.6666667,7.99333333 L14.6666667,10.6666667 C14.6666667,11.4 14.0666667,11.9866667 13.3333333,11.9866667 L1.33333333,11.9866667 C0.6,11.9866667 0,11.4 0,10.6666667 L0,1.33333333 C0,0.593333333 0.6,-8.8817842e-16 1.33333333,-8.8817842e-16 Z M10.6666667,8.66 L13.3333333,5.99333333 L10.6666667,3.32666667 L10.6666667,5.32666667 L4,5.32666667 L4,6.66 L10.6666667,6.66 L10.6666667,8.66 Z" id="icon-douane/output_24px"></path>
                </g>
            </g>
        </g>
    </g>
</svg>