<?xml version="1.0" encoding="UTF-8"?>
<svg width="273px" height="65px" viewBox="0 0 273 65" version="1.1" xmlns="http://www.w3.org/2000/svg" xmlns:xlink="http://www.w3.org/1999/xlink">
    <title>533F3E1F-8CD8-407C-8919-82CA16185930</title>
    <g id="FRIGO" stroke="none" stroke-width="1" fill="none" fill-rule="evenodd">
        <g id="clipper-0" transform="translate(-40.000000, -40.000000)">
            <g id="clipper" transform="translate(16.000000, 8.000000)">
                <g id="1️⃣/Logo/PopLab-baseline-black" transform="translate(24.461261, 32.695560)">
                    <g id="Picto" transform="translate(0.062264, 0.000000)">
                        <path d="M16.5431413,41.8525223 L17.2045117,41.8655739 C17.3082494,41.8676211 17.41212,41.868646 17.5161143,41.868646 C26.1138444,41.868646 33.0836818,34.8573075 33.0836818,26.2083831 C33.0836818,17.5594587 26.1138444,10.5481202 17.5161143,10.5481202 C8.91838412,10.5481202 1.94854671,17.5594587 1.94854671,26.2083831 C1.94854671,30.4188724 3.60711735,34.3635228 6.50818168,37.2818612 L6.96684554,37.7432561 L2.86587442,41.868646 L16.5431413,41.868646 L16.5431413,41.8525223 Z" id="bubble-fill" fill="#F7D720"></path>
                        <path d="M17.5161143,9.89560923 C26.4720832,9.89560923 33.7323305,17.1990869 33.7323305,26.2083831 C33.7323305,35.2176793 26.4720832,42.5211569 17.5161143,42.5211569 C17.4077544,42.5211569 17.2996429,42.5200878 17.1917894,42.5179594 L17.19179,42.5211569 L1.29989806,42.5211569 L6.04951782,37.7432561 C3.11495989,34.7912247 1.29989806,30.7130312 1.29989806,26.2083831 C1.29989806,17.1990869 8.56014536,9.89560923 17.5161143,9.89560923 Z M17.5161143,12.505653 C9.99310039,12.505653 3.89449265,18.6405743 3.89449265,26.2083831 C3.89449265,29.8677244 5.32542151,33.3236889 7.88417326,35.8976764 C8.89742547,36.9169619 8.89742547,38.5695503 7.88417326,39.5888358 L7.56380352,39.9111131 L17.0622784,39.9111131 C17.1222451,39.9081307 17.1824079,39.9072282 17.2426786,39.9084176 C17.3337242,39.9102143 17.4248719,39.9111131 17.5161143,39.9111131 C25.0391282,39.9111131 31.1377359,33.7761919 31.1377359,26.2083831 C31.1377359,18.6405743 25.0391282,12.505653 17.5161143,12.505653 Z" id="bubble-in" fill="#FFFFFF"></path>
                        <path d="M17.217234,41.2131885 C17.3167316,41.215152 17.4163612,41.216135 17.5161143,41.216135 C21.5278805,41.216135 25.284758,39.6176482 28.065383,36.8204662 C29.4506487,35.4269521 30.5532663,33.7728301 31.3035911,31.9525711 C31.6766999,31.0474237 31.9608652,30.105802 32.1510574,29.1386502 C32.2455212,28.6582897 32.3167067,28.1721321 32.3641794,27.6813851 C32.4335732,26.9640299 33.0679171,26.4390883 33.7810262,26.5088953 C34.4941352,26.5787023 35.0159696,27.2168233 34.9465758,27.9341785 C34.89086,28.5101381 34.8072762,29.0809689 34.6963269,29.6451606 C34.4728199,30.781722 34.1388049,31.8885277 33.7003036,32.9523148 C32.8191022,35.0900752 31.5251003,37.0313078 29.9000384,38.6660459 C26.6376562,41.9478537 22.2230828,43.8261788 17.5161143,43.8261788 C17.4310509,43.8261788 17.3460534,43.8255678 17.2611263,43.8243468 C17.2381674,43.825563 17.2150502,43.8261788 17.19179,43.8261788 L1.29989806,43.8261788 C0.144129605,43.8261788 -0.434681368,42.420485 0.382570344,41.5983671 L4.24854577,37.7093721 C1.53488459,34.5457354 0.00260076266,30.4977476 0.00260076266,26.2083831 C0.00260076266,21.4733874 1.86980782,17.032528 5.13219011,13.7507202 C6.75725194,12.1159822 8.68699411,10.8142752 10.8121008,9.92782678 C11.3414516,9.70701802 11.8817834,9.51244022 12.4314121,9.34494043 C13.1171145,9.13597208 13.8413856,9.52575121 14.0491171,10.2155365 C14.2568485,10.9053217 13.8693765,11.6339055 13.1836742,11.8428738 C12.7160618,11.9853791 12.256345,12.1509268 11.8059269,12.3388102 C9.9964423,13.0936028 8.35211126,14.2027858 6.96684554,15.5962999 C4.18622053,18.3934818 2.59719536,22.1727292 2.59719536,26.2083831 C2.59719536,30.2440369 4.18622053,34.0232843 6.96684554,36.8204662 C7.47347165,37.330109 7.47347165,38.1564032 6.96684554,38.6660459 L4.43185079,41.216135 L17.0998,41.216135 C17.1385092,41.2134149 17.177679,41.2124079 17.217234,41.2131885 Z" id="Path" fill="#000000"></path>
                        <ellipse id="Oval" fill="#4BC6B9" cx="16.5431413" cy="7.3044397" rx="1.2972973" ry="1.30434783"></ellipse>
                        <ellipse id="Oval" fill="#4BC6B9" cx="38.6836818" cy="6.86965709" rx="1.2972973" ry="1.30434783"></ellipse>
                        <ellipse id="Oval" fill="#FF715B" cx="35.0080062" cy="13.347918" rx="1" ry="1"></ellipse>
                        <ellipse id="Oval" fill="#4BC6B9" cx="9.40800617" cy="7.26096144" rx="1" ry="1"></ellipse>
                        <ellipse id="Oval" fill="#FF715B" cx="43.1377359" cy="23.6087875" rx="1" ry="1"></ellipse>
                        <ellipse id="Oval" fill="#FF715B" cx="15.8944927" cy="2.73922231" rx="1" ry="1"></ellipse>
                        <ellipse id="Oval" fill="#4BC6B9" cx="41.8404386" cy="32.0435701" rx="1" ry="1"></ellipse>
                        <ellipse id="Oval" fill="#4BC6B9" cx="20.1323305" cy="4.04357014" rx="1.94594595" ry="1.95652174"></ellipse>
                        <ellipse id="Oval" fill="#4BC6B9" cx="42.4890872" cy="19.0435701" rx="1.2972973" ry="1.30434783"></ellipse>
                        <ellipse id="Oval" fill="#FF715B" cx="41.2782764" cy="12.521831" rx="2.59459459" ry="2.60869565"></ellipse>
                        <ellipse id="Oval" fill="#4BC6B9" cx="39.5485467" cy="28.1740049" rx="2.59459459" ry="2.60869565"></ellipse>
                        <ellipse id="Oval" fill="#FF715B" cx="29.3431413" cy="13.5653093" rx="1.72972973" ry="1.73913043"></ellipse>
                        <path d="M17.19179,16.695744 C18.624745,16.695744 19.7863845,17.8643005 19.7863845,19.3057879 C19.7863845,20.5218363 18.9596778,21.5436474 17.8407897,21.833513 L17.8407191,22.9487768 C19.0659392,23.1556466 20.0970128,23.9383932 20.6494812,25.0108642 L22.7101416,24.347744 L22.7053035,24.19962 C22.7053035,22.8135744 23.7793045,21.6798689 25.1358118,21.5947111 L25.2998981,21.5895762 C26.7328531,21.5895762 27.8944927,22.7581326 27.8944927,24.19962 C27.8944927,25.6411074 26.7328531,26.8096638 25.2998981,26.8096638 C24.3756845,26.8096638 23.5643345,26.3235597 23.1047215,25.5916472 L21.0448077,26.2541727 C21.0704285,26.4356284 21.0836818,26.6210892 21.0836818,26.8096638 C21.0836818,28.9718949 19.3412225,30.7247296 17.19179,30.7247296 C15.0423574,30.7247296 13.2998981,28.9718949 13.2998981,26.8096638 C13.2998981,26.4743178 13.3418107,26.1488193 13.4206538,25.83818 L12.1160877,25.2558091 C11.902117,25.4123223 11.6387519,25.5046419 11.3539521,25.5046419 C10.6374746,25.5046419 10.0566548,24.9203637 10.0566548,24.19962 C10.0566548,23.4788763 10.6374746,22.8945981 11.3539521,22.8945981 C12.0242719,22.8945981 12.57585,23.4060193 12.6441367,24.0621413 L13.9481669,24.645341 C14.5314559,23.7625063 15.4614118,23.1314577 16.5425671,22.9488264 L16.5427902,21.833513 C15.4239021,21.5436474 14.5971954,20.5218363 14.5971954,19.3057879 C14.5971954,17.8643005 15.7588349,16.695744 17.19179,16.695744 Z M17.19179,25.5046419 C16.4753124,25.5046419 15.8944927,26.0889201 15.8944927,26.8096638 C15.8944927,27.5304075 16.4753124,28.1146857 17.19179,28.1146857 C17.9082675,28.1146857 18.4890872,27.5304075 18.4890872,26.8096638 C18.4890872,26.0889201 17.9082675,25.5046419 17.19179,25.5046419 Z" id="Core" fill="#000000"></path>
                        <path d="M37.9914271,0.834991879 C37.9914271,2.27103298 36.8310849,3.43606162 35.3968279,3.44365025 L35.3968325,8.66107884 C35.3968325,10.1018217 34.235193,11.2697745 32.8022379,11.2697745 C31.3692829,11.2697745 30.2076433,10.1018217 30.2076433,8.66107884 C30.2076433,7.22033601 31.3692829,6.05238318 32.8022379,6.05238318 L32.8022379,6.05238318 L32.8022379,0.834991879 L37.9914271,0.834991879 Z" id="Combined-Shape" fill="#000000" transform="translate(34.099535, 6.052383) rotate(15.000000) translate(-34.099535, -6.052383) "></path>
                        <path d="M35.4248406,19.2153427 L34.7365216,19.2163668 L34.2236934,23.290189 C34.1337391,24.004771 33.4844045,24.5125151 32.7733639,24.424267 C32.0623233,24.336019 31.5588334,23.6851966 31.6487877,22.9706145 L32.11916,19.2340548 C31.8638039,19.2791622 31.6885286,19.4391834 31.5064514,19.8042009 C31.1849767,20.4486742 30.4050889,20.7108651 29.7645231,20.3898208 C29.1239573,20.0687765 28.8652828,19.2860698 29.1867575,18.6415965 C29.8337991,17.3444459 30.9221164,16.614662 32.2970345,16.6126162 L38.1367446,16.6039256 C38.8534519,16.6028607 39.4335938,17.1856795 39.4325294,17.9056893 C39.431462,18.6256991 38.8495918,19.2102469 38.1328845,19.2113133 L38.0292636,19.2114674 C37.9434835,20.2275651 37.8791484,20.9896383 37.8362583,21.4976871 C37.8045957,21.8194677 38.129024,21.818985 38.129024,21.818985 C38.8457313,21.8179186 39.4258732,22.4007374 39.4248073,23.1207472 C39.4237414,23.840757 38.8418712,24.4253048 38.1251639,24.4263712 C36.3827137,24.4289638 35.2067098,23.4844516 35.209169,21.8233296 C35.2092225,21.7871941 35.2107714,21.7510721 35.2138119,21.7150571 L35.4248406,19.2153427 Z" id="Path" fill="#000000" transform="translate(34.240568, 20.519078) rotate(-15.000000) translate(-34.240568, -20.519078) "></path>
                        <path d="M23.9284825,14.5506198 L19.5322709,14.5506198 L18.9989724,15.623043 C18.6785715,16.2673451 17.8993626,16.5285002 17.2585608,16.2063491 C16.6177589,15.884198 16.3580226,15.1007329 16.6784235,14.4564308 L20.5701023,6.63055811 C21.0481617,5.66921677 22.4125918,5.66921677 22.8906512,6.63055811 L26.7823299,14.4564308 C27.1027309,15.1007329 26.8429946,15.884198 26.2021927,16.2063491 C25.5613909,16.5285002 24.782182,16.2673451 24.4617811,15.623043 L23.9284825,14.5506198 Z M22.6312563,11.9419956 L21.7303767,10.1303948 L20.8294972,11.9419956 L22.6312563,11.9419956 Z" id="Shape" fill="#000000" transform="translate(21.730377, 11.126943) rotate(-330.000000) translate(-21.730377, -11.126943) "></path>
                        <path d="M10.9647629,2.76227461 C11.5852507,2.40190276 12.3786652,2.61576343 12.736904,3.23994578 L13.7747418,4.9785709 C14.1329806,5.60275325 13.9203858,6.40089213 13.2998981,6.76126397 C12.6794103,7.12163582 11.8859958,6.90777516 11.527757,6.2835928 L10.4899192,4.54496769 C10.1316804,3.92078533 10.3442752,3.12264646 10.9647629,2.76227461 Z" id="Rectangle" fill="#FF715B"></path>
                        <path d="M36.9470123,32.8834902 L39.5454692,32.8901843 C40.2630132,32.8920316 40.8461952,33.4769428 40.8480469,34.1966199 C40.8498898,34.9162971 40.269703,35.4982131 39.5521589,35.4963702 L36.953702,35.4896761 C36.2361579,35.4878288 35.652976,34.9029177 35.6511243,34.1832405 C35.6492814,33.4635634 36.2294682,32.8816473 36.9470123,32.8834902 Z" id="Rectangle" fill="#FF715B" transform="translate(38.249586, 34.189930) rotate(-330.000000) translate(-38.249586, -34.189930) "></path>
                        <path d="M25.7333969,3.90199388 L26.4049274,1.38088516 C26.5903655,0.684700204 27.3017215,0.27155312 27.9937857,0.458095315 C28.6858498,0.644637511 29.0965514,1.36022925 28.9111134,2.0564142 L28.2395829,4.57752293 C28.0541448,5.27370788 27.3427888,5.68685497 26.6507247,5.50031277 C25.9586605,5.31377058 25.5479589,4.59817884 25.7333969,3.90199388 Z" id="Rectangle" fill="#FF715B"></path>
                    </g>
                    <path d="M55.3513514,6.7327453 L73.0947623,6.7327453 C77.6714587,6.7327453 81.297556,7.88312047 83.9731631,10.1839053 C86.6487702,12.4846902 87.9865537,15.8296272 87.9865537,20.2188168 C87.9865537,24.6080063 86.6487702,27.9529433 83.9731631,30.2537282 C81.297556,32.554513 77.6714587,33.7048882 73.0947623,33.7048882 L67.866793,33.7048882 L67.866793,43.8459892 L55.3513514,43.8459892 L55.3513514,6.7327453 Z M70.5599893,24.307114 C73.7636768,24.307114 75.3654965,22.9443619 75.3654965,20.2188168 C75.3654965,17.4932716 73.7636768,16.1305195 70.5599893,16.1305195 L67.866793,16.1305195 L67.866793,24.307114 L70.5599893,24.307114 Z M108.946209,44.6424107 C105.179236,44.6424107 101.773168,43.8282991 98.7279051,42.2000513 C95.6826418,40.5718036 93.2799123,38.2976004 91.5196444,35.3773734 C89.7593766,32.4571465 88.8792559,29.1033604 88.8792559,25.3159146 C88.8792559,21.5284688 89.7593766,18.1658337 91.5196444,15.2279084 C93.2799123,12.2899832 95.6826418,10.0069309 98.7279051,8.37868316 C101.773168,6.75043542 105.179236,5.93632376 108.946209,5.93632376 C112.677977,5.93632376 116.066441,6.75043542 119.111705,8.37868316 C122.156968,10.0069309 124.559698,12.2899832 126.319965,15.2279084 C128.080233,18.1658337 128.960354,21.5284688 128.960354,25.3159146 C128.960354,29.1033604 128.080233,32.4571465 126.319965,35.3773734 C124.559698,38.2976004 122.156968,40.5718036 119.111705,42.2000513 C116.066441,43.8282991 112.677977,44.6424107 108.946209,44.6424107 Z M108.946209,32.8022771 C111.05853,32.8022771 112.801169,32.1297501 114.174178,30.7846759 C115.547187,29.4396017 116.233681,27.6166995 116.233681,25.3159146 C116.233681,23.0151298 115.547187,21.1922276 114.174178,19.8471534 C112.801169,18.5020791 111.05853,17.8295521 108.946209,17.8295521 C106.798682,17.8295521 105.038441,18.5020791 103.665432,19.8471534 C102.292423,21.1922276 101.605929,23.0151298 101.605929,25.3159146 C101.605929,27.6166995 102.301224,29.4396017 103.691836,30.7846759 C105.082447,32.1297501 106.833887,32.8022771 108.946209,32.8022771 Z M132.229406,6.7327453 L149.972817,6.7327453 C154.549513,6.7327453 158.17561,7.88312047 160.851218,10.1839053 C163.526825,12.4846902 164.864608,15.8296272 164.864608,20.2188168 C164.864608,24.6080063 163.526825,27.9529433 160.851218,30.2537282 C158.17561,32.554513 154.549513,33.7048882 149.972817,33.7048882 L144.744847,33.7048882 L144.744847,43.8459892 L132.229406,43.8459892 L132.229406,6.7327453 Z M147.438044,24.307114 C150.641731,24.307114 152.243551,22.9443619 152.243551,20.2188168 C152.243551,17.4932716 150.641731,16.1305195 147.438044,16.1305195 L144.744847,16.1305195 L144.744847,24.307114 L147.438044,24.307114 Z M167.605582,6.7327453 L180.121024,6.7327453 L180.121024,33.28013 L193.903852,33.28013 L193.903852,43.8459892 L167.605582,43.8459892 L167.605582,6.7327453 Z M209.054652,6.7327453 L220.883593,6.7327453 L235.669769,43.8459892 L222.837481,43.8459892 L220.461131,37.3684273 L209.477115,37.3684273 L207.100765,43.8459892 L194.268477,43.8459892 L209.054652,6.7327453 Z M217.715127,28.1299374 L214.969123,19.5816795 L212.223119,28.1299374 L217.715127,28.1299374 Z M238.938821,6.7327453 L258.794543,6.7327453 C262.491105,6.7327453 265.465913,7.6441964 267.719056,9.46712593 C269.972199,11.2900555 271.098753,13.865126 271.098753,17.1924149 C271.098753,18.6082825 270.790711,19.9533365 270.174617,21.2276174 C269.558523,22.5018982 268.669602,23.5460849 267.507825,24.3602088 C269.197682,25.1743326 270.403447,26.2008213 271.125157,27.4397054 C271.846867,28.6785896 272.207716,30.2891148 272.207716,32.2713294 C272.207716,34.607511 271.644439,36.6516391 270.517868,38.4037753 C269.391296,40.1559115 267.877489,41.5009655 265.976399,42.4389778 C264.07531,43.3769901 261.96302,43.8459892 259.639467,43.8459892 L238.938821,43.8459892 L238.938821,6.7327453 Z M255.203614,20.8028592 C256.29498,20.8028592 257.09589,20.5816332 257.606368,20.1391746 C258.116845,19.696716 258.37208,18.9622457 258.37208,17.9357417 C258.37208,16.980031 258.116845,16.2898059 257.606368,15.8650457 C257.09589,15.4402854 256.29498,15.2279084 255.203614,15.2279084 L251.084608,15.2279084 L251.084608,20.8028592 L255.203614,20.8028592 Z M255.890115,35.3508261 C257.157508,35.3508261 258.072834,35.1030529 258.636119,34.6074993 C259.199405,34.1119456 259.481044,33.315532 259.481044,32.2182347 C259.481044,31.1209373 259.199405,30.3156746 258.636119,29.8024226 C258.072834,29.2891706 257.157508,29.0325485 255.890115,29.0325485 L251.084608,29.0325485 L251.084608,35.3508261 L255.890115,35.3508261 Z" id="POPLAB" fill="#000000"></path>
                    <path d="M0,54.921831 L2.98666667,54.921831 C3.83231654,54.921831 4.49152917,55.1227952 4.96432432,55.5247296 C5.43711948,55.9266639 5.67351351,56.5218271 5.67351351,57.3102368 C5.67351351,58.106376 5.43904138,58.7015392 4.97009009,59.095744 C4.5011388,59.4899489 3.84000427,59.6870484 2.98666667,59.6870484 L0.899459459,59.6870484 L0.899459459,63.0261788 L0,63.0261788 L0,54.921831 Z M2.91747748,58.921831 C3.49405694,58.921831 3.94762597,58.8039578 4.2781982,58.5682078 C4.60877042,58.3324578 4.77405405,57.9131384 4.77405405,57.3102368 C4.77405405,56.6996057 4.60877042,56.2764216 4.2781982,56.0406716 C3.94762597,55.8049216 3.49405694,55.6870484 2.91747748,55.6870484 L0.899459459,55.6870484 L0.899459459,58.921831 L2.91747748,58.921831 Z M7.09277893,54.921831 L10.2062924,54.921831 C11.0442546,54.921831 11.6804044,55.1189305 12.1147609,55.5131354 C12.5491174,55.9073402 12.7662924,56.4909093 12.7662924,57.26386 C12.7662924,57.8513025 12.5952431,58.3498483 12.2531393,58.7595122 C11.9110355,59.169176 11.4363255,59.4281107 10.8289951,59.5363238 L12.7432294,63.0261788 L11.8091753,63.0261788 L9.91800416,59.5827006 L7.99223839,59.5827006 L7.99223839,63.0261788 L7.09277893,63.0261788 L7.09277893,54.921831 Z M10.0909771,58.8174832 C10.6444934,58.8174832 11.0788434,58.6860835 11.3940402,58.4232803 C11.709237,58.160477 11.866833,57.7740075 11.866833,57.26386 C11.866833,56.6918765 11.7111589,56.2860834 11.399806,56.0464687 C11.088453,55.806854 10.6521811,55.6870484 10.0909771,55.6870484 L7.99223839,55.6870484 L7.99223839,58.8174832 L10.0909771,58.8174832 Z M17.2644768,52.4522658 L18.1985308,52.4522658 L17.2760083,54.4232803 L16.4803326,54.4232803 L17.2644768,52.4522658 Z M14.4161885,54.921831 L19.6053777,54.921831 L19.6053777,55.6870484 L15.315648,55.6870484 L15.315648,58.5855991 L18.5329452,58.5855991 L18.5329452,59.3508165 L15.315648,59.3508165 L15.315648,62.2609614 L19.6053777,62.2609614 L19.6053777,63.0261788 L14.4161885,63.0261788 L14.4161885,54.921831 Z M21.2552737,54.921831 L24.2419404,54.921831 C25.0875903,54.921831 25.7468029,55.1227952 26.2195981,55.5247296 C26.6923932,55.9266639 26.9287872,56.5218271 26.9287872,57.3102368 C26.9287872,58.106376 26.6943151,58.7015392 26.2253638,59.095744 C25.7564125,59.4899489 25.095278,59.6870484 24.2419404,59.6870484 L22.1547332,59.6870484 L22.1547332,63.0261788 L21.2552737,63.0261788 L21.2552737,54.921831 Z M24.1727512,58.921831 C24.7493307,58.921831 25.2028997,58.8039578 25.5334719,58.5682078 C25.8640442,58.3324578 26.0293278,57.9131384 26.0293278,57.3102368 C26.0293278,56.6996057 25.8640442,56.2764216 25.5334719,56.0406716 C25.2028997,55.8049216 24.7493307,55.6870484 24.1727512,55.6870484 L22.1547332,55.6870484 L22.1547332,58.921831 L24.1727512,58.921831 Z M30.1815662,54.921831 L31.023368,54.921831 L34.2406653,63.0261788 L33.3181427,63.0261788 L32.4532779,60.8580629 L28.7401247,60.8580629 L27.8867914,63.0261788 L26.9642689,63.0261788 L30.1815662,54.921831 Z M32.1995842,60.0928455 L30.5967013,55.9653093 L29.00535,60.0928455 L32.1995842,60.0928455 Z M35.8905613,54.921831 L39.0040748,54.921831 C39.842037,54.921831 40.4781868,55.1189305 40.9125433,55.5131354 C41.3468998,55.9073402 41.5640748,56.4909093 41.5640748,57.26386 C41.5640748,57.8513025 41.3930255,58.3498483 41.0509217,58.7595122 C40.7088179,59.169176 40.2341079,59.4281107 39.6267775,59.5363238 L41.5410118,63.0261788 L40.6069577,63.0261788 L38.7157865,59.5827006 L36.7900208,59.5827006 L36.7900208,63.0261788 L35.8905613,63.0261788 L35.8905613,54.921831 Z M38.8887595,58.8174832 C39.4422758,58.8174832 39.8766258,58.6860835 40.1918226,58.4232803 C40.5070194,58.160477 40.6646154,57.7740075 40.6646154,57.26386 C40.6646154,56.6918765 40.5089413,56.2860834 40.1975883,56.0464687 C39.8862354,55.806854 39.4499635,55.6870484 38.8887595,55.6870484 L36.7900208,55.6870484 L36.7900208,58.8174832 L38.8887595,58.8174832 Z M43.2139709,54.921831 L48.4031601,54.921831 L48.4031601,55.6870484 L44.1134303,55.6870484 L44.1134303,58.5855991 L47.3307276,58.5855991 L47.3307276,59.3508165 L44.1134303,59.3508165 L44.1134303,62.2609614 L48.4031601,62.2609614 L48.4031601,63.0261788 L43.2139709,63.0261788 L43.2139709,54.921831 Z M50.0530561,54.921831 L53.1665696,54.921831 C54.0045318,54.921831 54.6406816,55.1189305 55.0750381,55.5131354 C55.5093946,55.9073402 55.7265696,56.4909093 55.7265696,57.26386 C55.7265696,57.8513025 55.5555203,58.3498483 55.2134165,58.7595122 C54.8713127,59.169176 54.3966027,59.4281107 53.7892723,59.5363238 L55.7035066,63.0261788 L54.7694525,63.0261788 L52.8782813,59.5827006 L50.9525156,59.5827006 L50.9525156,63.0261788 L50.0530561,63.0261788 L50.0530561,54.921831 Z M53.0512543,58.8174832 C53.6047706,58.8174832 54.0391206,58.6860835 54.3543174,58.4232803 C54.6695142,58.160477 54.8271102,57.7740075 54.8271102,57.26386 C54.8271102,56.6918765 54.6714361,56.2860834 54.3600831,56.0464687 C54.0487302,55.806854 53.6124583,55.6870484 53.0512543,55.6870484 L50.9525156,55.6870484 L50.9525156,58.8174832 L53.0512543,58.8174832 Z M66.0144698,63.2000919 C65.222634,63.2000919 64.5057643,63.0242482 63.8638392,62.6725556 C63.2219141,62.3208631 62.7164537,61.8242497 62.3474428,61.1827006 C61.978432,60.5411515 61.7939293,59.8068593 61.7939293,58.979802 C61.7939293,58.1527447 61.978432,57.4184526 62.3474428,56.7769035 C62.7164537,56.1353544 63.2199922,55.6368086 63.8580734,55.2812513 C64.4961547,54.925694 65.2149463,54.747918 66.0144698,54.747918 C66.8139934,54.747918 67.532785,54.925694 68.1708662,55.2812513 C68.8089475,55.6368086 69.312486,56.1353544 69.6814969,56.7769035 C70.0505077,57.4184526 70.2350104,58.1527447 70.2350104,58.979802 C70.2350104,59.8068593 70.0505077,60.5411515 69.6814969,61.1827006 C69.312486,61.8242497 68.8070256,62.3208631 68.1651005,62.6725556 C67.5231753,63.0242482 66.8063056,63.2000919 66.0144698,63.2000919 Z M57.1963964,61.9131354 L58.1304505,61.9131354 L57.0810811,64.1971933 L56.2738739,64.1971933 L57.1963964,61.9131354 Z M66.0144698,62.3884977 C66.6294879,62.3884977 67.1906835,62.2493686 67.6980734,61.9711064 C68.2054634,61.6928441 68.6052191,61.2967128 68.8973527,60.7827006 C69.1894863,60.2686883 69.3355509,59.6677282 69.3355509,58.979802 C69.3355509,58.2996054 69.1914082,57.7025099 68.9031185,57.1884977 C68.6148288,56.6744854 68.2189168,56.2764218 67.7153707,55.9942948 C67.2118247,55.7121678 66.652551,55.5711064 66.0375329,55.5711064 C65.4148271,55.5711064 64.8497877,55.7102354 64.3423978,55.9884977 C63.8350078,56.2667599 63.4333302,56.6648236 63.1373527,57.1827006 C62.8413753,57.7005776 62.6933888,58.2996054 62.6933888,58.979802 C62.6933888,59.6677282 62.8394534,60.2686883 63.131587,60.7827006 C63.4237205,61.2967128 63.8234763,61.6928441 64.3308662,61.9711064 C64.8382562,62.2493686 65.3994517,62.3884977 66.0144698,62.3884977 Z M71.8849064,54.921831 L74.9984199,54.921831 C75.8363821,54.921831 76.4725319,55.1189305 76.9068884,55.5131354 C77.3412449,55.9073402 77.5584199,56.4909093 77.5584199,57.26386 C77.5584199,57.8513025 77.3873706,58.3498483 77.0452668,58.7595122 C76.703163,59.169176 76.228453,59.4281107 75.6211226,59.5363238 L77.5353569,63.0261788 L76.6013028,63.0261788 L74.7101316,59.5827006 L72.7843659,59.5827006 L72.7843659,63.0261788 L71.8849064,63.0261788 L71.8849064,54.921831 Z M74.8831046,58.8174832 C75.4366209,58.8174832 75.8709709,58.6860835 76.1861677,58.4232803 C76.5013645,58.160477 76.6589605,57.7740075 76.6589605,57.26386 C76.6589605,56.6918765 76.5032864,56.2860834 76.1919335,56.0464687 C75.8805805,55.806854 75.4443086,55.6870484 74.8831046,55.6870484 L72.7843659,55.6870484 L72.7843659,58.8174832 L74.8831046,58.8174832 Z M83.0367845,63.2000919 C82.2218855,63.2000919 81.4934844,63.0261806 80.8515592,62.6783527 C80.2096341,62.3305249 79.7080175,61.8377762 79.3466944,61.2000919 C78.9853712,60.5624075 78.8047124,59.8223183 78.8047124,58.979802 C78.8047124,58.1372857 78.9853712,57.3971965 79.3466944,56.7595122 C79.7080175,56.1218278 80.2096341,55.6271468 80.8515592,55.2754542 C81.4934844,54.9237616 82.2218855,54.747918 83.0367845,54.747918 C84.1515047,54.747918 85.074018,55.0416348 85.804352,55.6290774 L85.804352,56.5102368 C85.1124567,55.8841467 84.2130062,55.5711064 83.1059736,55.5711064 C82.4525169,55.5711064 81.8682585,55.7102354 81.3531808,55.9884977 C80.8381032,56.2667599 80.4345036,56.6628912 80.14237,57.1769035 C79.8502364,57.6909157 79.7041718,58.2918759 79.7041718,58.979802 C79.7041718,59.6677282 79.8502364,60.2686883 80.14237,60.7827006 C80.4345036,61.2967128 80.8361813,61.6928441 81.3474151,61.9711064 C81.8586489,62.2493686 82.4371416,62.3884977 83.0829106,62.3884977 C83.4596092,62.3884977 83.8247707,62.3440537 84.1784061,62.2551643 C84.5320415,62.166275 84.8241707,62.0484018 85.0548025,61.9015412 L85.0548025,59.4087875 L83.3596673,59.4087875 L83.3596673,58.6435701 L85.9542619,58.6435701 L85.9542619,62.2841498 C85.5775634,62.6010596 85.148979,62.8329414 84.6684962,62.979802 C84.1880133,63.1266627 83.6441148,63.2000919 83.0367845,63.2000919 Z M90.5908246,54.921831 L91.4326264,54.921831 L94.6499237,63.0261788 L93.7274012,63.0261788 L92.8625364,60.8580629 L89.1493832,60.8580629 L88.2960499,63.0261788 L87.3735273,63.0261788 L90.5908246,54.921831 Z M92.6088427,60.0928455 L91.0059598,55.9653093 L89.4146084,60.0928455 L92.6088427,60.0928455 Z M96.2998198,54.921831 L97.1646847,54.921831 L101.604324,61.4841498 L101.604324,54.921831 L102.503784,54.921831 L102.503784,63.0261788 L101.638919,63.0261788 L97.1992793,56.4522658 L97.1992793,63.0261788 L96.2998198,63.0261788 L96.2998198,54.921831 Z M104.395842,54.921831 L105.295301,54.921831 L105.295301,63.0261788 L104.395842,63.0261788 L104.395842,54.921831 Z M109.332225,63.2000919 C108.886336,63.2000919 108.448143,63.1614449 108.01763,63.0841498 C107.587117,63.0068548 107.233487,62.902508 106.956729,62.7711064 L106.956729,61.9131354 C107.679375,62.2300452 108.455824,62.3884977 109.286098,62.3884977 C109.977994,62.3884977 110.487298,62.2764215 110.814026,62.0522658 C111.140755,61.8281101 111.304116,61.4918816 111.304116,61.0435701 C111.304116,60.7266603 111.23685,60.4754551 111.102315,60.2899469 C110.967779,60.1044388 110.773667,59.9479186 110.519972,59.8203817 C110.266277,59.6928449 109.828083,59.5015424 109.205378,59.2464687 C108.444293,58.9372884 107.892707,58.5991275 107.550603,58.2319759 C107.208499,57.8648243 107.03745,57.3991285 107.03745,56.8348745 C107.03745,56.4252106 107.146998,56.0619292 107.366098,55.7450194 C107.585199,55.4281096 107.894625,55.1827014 108.294387,55.0087875 C108.694148,54.8348736 109.155405,54.747918 109.67817,54.747918 C110.100995,54.747918 110.483454,54.7807679 110.825558,54.8464687 C111.167662,54.9121695 111.503995,55.0184486 111.834567,55.1653093 L111.834567,55.9884977 C111.188798,55.7025059 110.512288,55.5595122 109.805017,55.5595122 C109.189999,55.5595122 108.724899,55.6715883 108.409702,55.895744 C108.094505,56.1198998 107.936909,56.4329401 107.936909,56.8348745 C107.936909,57.1054072 108.002254,57.337289 108.132945,57.5305267 C108.263637,57.7237643 108.46928,57.9015403 108.749882,58.06386 C109.030484,58.2261796 109.416787,58.4039556 109.908801,58.5971933 C110.462317,58.8136195 110.896667,59.016516 111.211864,59.205889 C111.527061,59.3952619 111.771143,59.634873 111.944116,59.9247296 C112.11709,60.2145861 112.203576,60.5875292 112.203576,61.0435701 C112.203576,61.7314963 111.961416,62.2628919 111.477089,62.637773 C110.992763,63.0126541 110.277815,63.2000919 109.332225,63.2000919 Z M113.853472,54.921831 L119.042661,54.921831 L119.042661,55.6870484 L114.752931,55.6870484 L114.752931,58.5855991 L117.970229,58.5855991 L117.970229,59.3508165 L114.752931,59.3508165 L114.752931,62.2609614 L119.042661,62.2609614 L119.042661,63.0261788 L113.853472,63.0261788 L113.853472,54.921831 Z M120.692557,54.921831 L123.806071,54.921831 C124.644033,54.921831 125.280183,55.1189305 125.714539,55.5131354 C126.148896,55.9073402 126.366071,56.4909093 126.366071,57.26386 C126.366071,57.8513025 126.195021,58.3498483 125.852917,58.7595122 C125.510814,59.169176 125.036104,59.4281107 124.428773,59.5363238 L126.343008,63.0261788 L125.408954,63.0261788 L123.517782,59.5827006 L121.592017,59.5827006 L121.592017,63.0261788 L120.692557,63.0261788 L120.692557,54.921831 Z M123.690755,58.8174832 C124.244272,58.8174832 124.678622,58.6860835 124.993818,58.4232803 C125.309015,58.160477 125.466611,57.7740075 125.466611,57.26386 C125.466611,56.6918765 125.310937,56.2860834 124.999584,56.0464687 C124.688231,55.806854 124.251959,55.6870484 123.690755,55.6870484 L121.592017,55.6870484 L121.592017,58.8174832 L123.690755,58.8174832 Z M132.664061,54.921831 L137.85325,54.921831 L137.85325,55.6870484 L133.56352,55.6870484 L133.56352,58.5855991 L136.780818,58.5855991 L136.780818,59.3508165 L133.56352,59.3508165 L133.56352,62.2609614 L137.85325,62.2609614 L137.85325,63.0261788 L132.664061,63.0261788 L132.664061,54.921831 Z M141.624948,55.6870484 L139.041885,55.6870484 L139.041885,54.921831 L145.107471,54.921831 L145.107471,55.6870484 L142.524407,55.6870484 L142.524407,63.0261788 L141.624948,63.0261788 L141.624948,55.6870484 Z M151.17483,54.921831 L154.161497,54.921831 C155.007147,54.921831 155.666359,55.1227952 156.139154,55.5247296 C156.61195,55.9266639 156.848344,56.5218271 156.848344,57.3102368 C156.848344,58.106376 156.613872,58.7015392 156.14492,59.095744 C155.675969,59.4899489 155.014834,59.6870484 154.161497,59.6870484 L152.07429,59.6870484 L152.07429,63.0261788 L151.17483,63.0261788 L151.17483,54.921831 Z M154.092308,58.921831 C154.668887,58.921831 155.122456,58.8039578 155.453028,58.5682078 C155.783601,58.3324578 155.948884,57.9131384 155.948884,57.3102368 C155.948884,56.6996057 155.783601,56.2764216 155.453028,56.0406716 C155.122456,55.8049216 154.668887,55.6870484 154.092308,55.6870484 L152.07429,55.6870484 L152.07429,58.921831 L154.092308,58.921831 Z M160.101123,54.921831 L160.942924,54.921831 L164.160222,63.0261788 L163.237699,63.0261788 L162.372834,60.8580629 L158.659681,60.8580629 L157.806348,63.0261788 L156.883825,63.0261788 L160.101123,54.921831 Z M162.119141,60.0928455 L160.516258,55.9653093 L158.924906,60.0928455 L162.119141,60.0928455 Z M165.810118,54.921831 L168.923631,54.921831 C169.761593,54.921831 170.397743,55.1189305 170.8321,55.5131354 C171.266456,55.9073402 171.483631,56.4909093 171.483631,57.26386 C171.483631,57.8513025 171.312582,58.3498483 170.970478,58.7595122 C170.628374,59.169176 170.153664,59.4281107 169.546334,59.5363238 L171.460568,63.0261788 L170.526514,63.0261788 L168.635343,59.5827006 L166.709577,59.5827006 L166.709577,63.0261788 L165.810118,63.0261788 L165.810118,54.921831 Z M168.808316,58.8174832 C169.361832,58.8174832 169.796182,58.6860835 170.111379,58.4232803 C170.426576,58.160477 170.584172,57.7740075 170.584172,57.26386 C170.584172,56.6918765 170.428498,56.2860834 170.117145,56.0464687 C169.805792,55.806854 169.36952,55.6870484 168.808316,55.6870484 L166.709577,55.6870484 L166.709577,58.8174832 L168.808316,58.8174832 Z M174.851726,55.6870484 L172.268662,55.6870484 L172.268662,54.921831 L178.334248,54.921831 L178.334248,55.6870484 L175.751185,55.6870484 L175.751185,63.0261788 L174.851726,63.0261788 L174.851726,55.6870484 Z M181.298739,54.921831 L182.14054,54.921831 L185.357838,63.0261788 L184.435315,63.0261788 L183.57045,60.8580629 L179.857297,60.8580629 L179.003964,63.0261788 L178.081441,63.0261788 L181.298739,54.921831 Z M183.316757,60.0928455 L181.713874,55.9653093 L180.122522,60.0928455 L183.316757,60.0928455 Z M190.374941,63.2000919 C189.560042,63.2000919 188.831641,63.0261806 188.189716,62.6783527 C187.547791,62.3305249 187.046174,61.8377762 186.684851,61.2000919 C186.323528,60.5624075 186.142869,59.8223183 186.142869,58.979802 C186.142869,58.1372857 186.323528,57.3971965 186.684851,56.7595122 C187.046174,56.1218278 187.547791,55.6271468 188.189716,55.2754542 C188.831641,54.9237616 189.560042,54.747918 190.374941,54.747918 C191.489661,54.747918 192.412175,55.0416348 193.142509,55.6290774 L193.142509,56.5102368 C192.450613,55.8841467 191.551163,55.5711064 190.44413,55.5711064 C189.790674,55.5711064 189.206415,55.7102354 188.691337,55.9884977 C188.17626,56.2667599 187.77266,56.6628912 187.480527,57.1769035 C187.188393,57.6909157 187.042328,58.2918759 187.042328,58.979802 C187.042328,59.6677282 187.188393,60.2686883 187.480527,60.7827006 C187.77266,61.2967128 188.174338,61.6928441 188.685572,61.9711064 C189.196805,62.2493686 189.775298,62.3884977 190.421067,62.3884977 C190.797766,62.3884977 191.162927,62.3440537 191.516563,62.2551643 C191.870198,62.166275 192.162327,62.0484018 192.392959,61.9015412 L192.392959,59.4087875 L190.697824,59.4087875 L190.697824,58.6435701 L193.292419,58.6435701 L193.292419,62.2841498 C192.91572,62.6010596 192.487136,62.8329414 192.006653,62.979802 C191.52617,63.1266627 190.982271,63.2000919 190.374941,63.2000919 Z M194.942315,54.921831 L200.131504,54.921831 L200.131504,55.6870484 L195.841774,55.6870484 L195.841774,58.5855991 L199.059071,58.5855991 L199.059071,59.3508165 L195.841774,59.3508165 L195.841774,62.2609614 L200.131504,62.2609614 L200.131504,63.0261788 L194.942315,63.0261788 L194.942315,54.921831 Z M201.7814,54.921831 L204.894913,54.921831 C205.732875,54.921831 206.369025,55.1189305 206.803382,55.5131354 C207.237738,55.9073402 207.454913,56.4909093 207.454913,57.26386 C207.454913,57.8513025 207.283864,58.3498483 206.94176,58.7595122 C206.599656,59.169176 206.124946,59.4281107 205.517616,59.5363238 L207.43185,63.0261788 L206.497796,63.0261788 L204.606625,59.5827006 L202.680859,59.5827006 L202.680859,63.0261788 L201.7814,63.0261788 L201.7814,54.921831 Z M204.779598,58.8174832 C205.333114,58.8174832 205.767464,58.6860835 206.082661,58.4232803 C206.397858,58.160477 206.555454,57.7740075 206.555454,57.26386 C206.555454,56.6918765 206.39978,56.2860834 206.088427,56.0464687 C205.777074,55.806854 205.340802,55.6870484 204.779598,55.6870484 L202.680859,55.6870484 L202.680859,58.8174832 L204.779598,58.8174832 Z M213.752904,54.921831 L214.652363,54.921831 L214.652363,62.2609614 L218.942093,62.2609614 L218.942093,63.0261788 L213.752904,63.0261788 L213.752904,54.921831 Z M220.130728,54.921831 L225.319917,54.921831 L225.319917,55.6870484 L221.030187,55.6870484 L221.030187,58.5855991 L224.247484,58.5855991 L224.247484,59.3508165 L221.030187,59.3508165 L221.030187,62.2609614 L225.319917,62.2609614 L225.319917,63.0261788 L220.130728,63.0261788 L220.130728,54.921831 Z M233.762772,63.2000919 C233.316884,63.2000919 232.87869,63.1614449 232.448177,63.0841498 C232.017665,63.0068548 231.664035,62.902508 231.387276,62.7711064 L231.387276,61.9131354 C232.109923,62.2300452 232.886371,62.3884977 233.716646,62.3884977 C234.408541,62.3884977 234.917845,62.2764215 235.244574,62.0522658 C235.571302,61.8281101 235.734664,61.4918816 235.734664,61.0435701 C235.734664,60.7266603 235.667397,60.4754551 235.532862,60.2899469 C235.398327,60.1044388 235.204215,59.9479186 234.95052,59.8203817 C234.696825,59.6928449 234.258631,59.5015424 233.635925,59.2464687 C232.87484,58.9372884 232.323254,58.5991275 231.98115,58.2319759 C231.639046,57.8648243 231.467997,57.3991285 231.467997,56.8348745 C231.467997,56.4252106 231.577546,56.0619292 231.796646,55.7450194 C232.015746,55.4281096 232.325172,55.1827014 232.724934,55.0087875 C233.124696,54.8348736 233.585953,54.747918 234.108718,54.747918 C234.531543,54.747918 234.914001,54.7807679 235.256105,54.8464687 C235.598209,54.9121695 235.934542,55.0184486 236.265114,55.1653093 L236.265114,55.9884977 C235.619345,55.7025059 234.942836,55.5595122 234.235565,55.5595122 C233.620547,55.5595122 233.155446,55.6715883 232.840249,55.895744 C232.525053,56.1198998 232.367457,56.4329401 232.367457,56.8348745 C232.367457,57.1054072 232.432801,57.337289 232.563493,57.5305267 C232.694184,57.7237643 232.899828,57.9015403 233.18043,58.06386 C233.461032,58.2261796 233.847334,58.4039556 234.339349,58.5971933 C234.892865,58.8136195 235.327215,59.016516 235.642412,59.205889 C235.957608,59.3952619 236.20169,59.634873 236.374664,59.9247296 C236.547638,60.2145861 236.634123,60.5875292 236.634123,61.0435701 C236.634123,61.7314963 236.391964,62.2628919 235.907637,62.637773 C235.42331,63.0126541 234.708362,63.2000919 233.762772,63.2000919 Z M240.751767,54.921831 L241.593569,54.921831 L244.810866,63.0261788 L243.888344,63.0261788 L243.023479,60.8580629 L239.310326,60.8580629 L238.456992,63.0261788 L237.53447,63.0261788 L240.751767,54.921831 Z M242.769785,60.0928455 L241.166902,55.9653093 L239.575551,60.0928455 L242.769785,60.0928455 Z M244.673375,54.921831 L245.61896,54.921831 L248.305807,61.7740049 L251.004186,54.921831 L251.949771,54.921831 L248.732474,63.0261788 L247.890672,63.0261788 L244.673375,54.921831 Z M256.840028,63.2000919 C256.048192,63.2000919 255.331322,63.0242482 254.689397,62.6725556 C254.047472,62.3208631 253.542011,61.8242497 253.173001,61.1827006 C252.80399,60.5411515 252.619487,59.8068593 252.619487,58.979802 C252.619487,58.1527447 252.80399,57.4184526 253.173001,56.7769035 C253.542011,56.1353544 254.04555,55.6368086 254.683631,55.2812513 C255.321713,54.925694 256.040504,54.747918 256.840028,54.747918 C257.639551,54.747918 258.358343,54.925694 258.996424,55.2812513 C259.634505,55.6368086 260.138044,56.1353544 260.507055,56.7769035 C260.876066,57.4184526 261.060568,58.1527447 261.060568,58.979802 C261.060568,59.8068593 260.876066,60.5411515 260.507055,61.1827006 C260.138044,61.8242497 259.632583,62.3208631 258.990658,62.6725556 C258.348733,63.0242482 257.631863,63.2000919 256.840028,63.2000919 Z M256.840028,62.3884977 C257.455046,62.3884977 258.016241,62.2493686 258.523631,61.9711064 C259.031021,61.6928441 259.430777,61.2967128 259.722911,60.7827006 C260.015044,60.2686883 260.161109,59.6677282 260.161109,58.979802 C260.161109,58.2996054 260.016966,57.7025099 259.728676,57.1884977 C259.440387,56.6744854 259.044475,56.2764218 258.540929,55.9942948 C258.037382,55.7121678 257.478109,55.5711064 256.863091,55.5711064 C256.240385,55.5711064 255.675345,55.7102354 255.167956,55.9884977 C254.660566,56.2667599 254.258888,56.6648236 253.962911,57.1827006 C253.666933,57.7005776 253.518947,58.2996054 253.518947,58.979802 C253.518947,59.6677282 253.665011,60.2686883 253.957145,60.7827006 C254.249278,61.2967128 254.649034,61.6928441 255.156424,61.9711064 C255.663814,62.2493686 256.22501,62.3884977 256.840028,62.3884977 Z M262.721996,54.921831 L263.621455,54.921831 L263.621455,63.0261788 L262.721996,63.0261788 L262.721996,54.921831 Z M265.513513,54.921831 L268.627027,54.921831 C269.464989,54.921831 270.101139,55.1189305 270.535495,55.5131354 C270.969852,55.9073402 271.187027,56.4909093 271.187027,57.26386 C271.187027,57.8513025 271.015978,58.3498483 270.673874,58.7595122 C270.33177,59.169176 269.85706,59.4281107 269.24973,59.5363238 L271.163964,63.0261788 L270.22991,63.0261788 L268.338739,59.5827006 L266.412973,59.5827006 L266.412973,63.0261788 L265.513513,63.0261788 L265.513513,54.921831 Z M268.511712,58.8174832 C269.065228,58.8174832 269.499578,58.6860835 269.814775,58.4232803 C270.129971,58.160477 270.287567,57.7740075 270.287567,57.26386 C270.287567,56.6918765 270.131893,56.2860834 269.82054,56.0464687 C269.509188,55.806854 269.072916,55.6870484 268.511712,55.6870484 L266.412973,55.6870484 L266.412973,58.8174832 L268.511712,58.8174832 Z" id="PRÉPARER-ORGANISER-E" fill="#000000"></path>
                </g>
            </g>
        </g>
    </g>
</svg>